<svg width="36" height="35" viewBox="0 0 36 35" fill="none" xmlns="http://www.w3.org/2000/svg">
<path fill-rule="evenodd" clip-rule="evenodd" d="M32.7935 0.146855C31.1414 -0.128486 28.826 -0.0979948 26.9002 0.957633C24.9281 2.03863 23.4572 4.14397 23.4572 7.80246V8.18436L23.8257 8.28484C25.3539 8.70164 27.5278 8.84301 29.426 7.82532C31.359 6.78901 32.8813 4.6203 33.2096 0.681574L33.2478 0.222575L32.7935 0.146855ZM28.9535 6.94399C27.5021 7.7221 25.8052 7.70887 24.4634 7.41242C24.5618 4.32109 25.8355 2.68162 27.3809 1.83453C28.8749 1.01559 30.6997 0.895768 32.167 1.0678C31.7837 4.45434 30.4417 6.14614 28.9535 6.94399ZM5.81868 23.2818L7.27419 24.2955L7.48859 24.4448C7.6785 24.577 7.8158 24.7715 7.88266 24.993C9.34813 29.8489 12.6093 33.9245 15.999 33.9245C17.6388 33.9245 18.4919 33.6946 19.2254 33.4969C20.4217 33.1744 21.2997 32.9378 24.7531 33.9245C27.1728 34.6159 34.3029 32.3329 35.0987 21.1913C35.0987 15.038 32.8728 9.5885 27.9363 9.58849C25.3051 9.58849 23.7178 10.4862 22.7143 11.0944C22.1579 11.4315 21.7256 11.0275 21.8051 10.3818C22.4982 4.75437 18.0746 1.29574 17.5906 1.29574C17.4036 1.29574 17.1725 1.80852 17.0076 2.25197C16.8663 2.63209 17.0055 3.05028 17.3054 3.32327C19.7401 5.53935 20.6676 8.45668 20.8671 9.92739C20.8734 9.97447 20.8791 10.0201 20.884 10.0641C20.9138 10.3309 20.9172 10.5407 20.8998 10.6778C20.8806 10.8293 20.8361 10.8922 20.7739 10.8456C20.5689 10.6918 20.3671 10.5512 20.1685 10.4229L20.1079 10.384C18.1275 9.12464 16.4646 9.08024 15 9.27492C14.5953 9.32871 14.2058 9.40075 13.8288 9.47046V9.47047L13.8286 9.47051C13.7335 9.4881 13.6391 9.50555 13.5456 9.52251C13.4059 9.54784 13.2641 9.5411 13.1288 9.50628C13.028 9.48033 12.9308 9.43878 12.8407 9.3833C9.7204 7.46121 7.52404 7.36783 6.63242 7.60264C6.57018 7.61903 6.50722 7.63233 6.44427 7.64563H6.44426H6.44425H6.44424C6.38212 7.65876 6.32 7.67188 6.25856 7.68798C6.14348 7.71812 6.02482 7.77432 5.90255 7.85382C5.49465 8.11901 5.04663 8.64346 4.55807 9.32473C4.11617 9.94093 3.64109 10.6854 3.13251 11.4824H3.1325L3.13248 11.4825C2.44296 12.563 1.69185 13.7401 0.878353 14.8247C-1.03162 17.3714 0.61308 19.5997 1.67418 20.3955L5.81868 23.2818ZM2.14369 19.7476L7.7194 23.6306L16.1592 29.0608C16.4404 29.2417 16.8154 29.1578 16.9926 28.8742L19.939 24.1599C20.1064 23.8921 20.0376 23.5404 19.7815 23.3555L17.713 21.8615L15.6032 24.6746L14.8032 24.0746L16.9022 21.2759L14.8854 19.8194L12.4188 23.0844L11.6209 22.4816L14.0745 19.2337L12.1637 17.8537L10.0324 20.6955L9.2324 20.0955L11.3529 17.2681L9.43358 15.882L6.83915 19.1167L6.05907 18.491L8.62187 15.2957L6.5334 13.7874L4.38164 16.6564L3.74164 16.1764L5.92615 13.2637C5.25731 12.5255 4.74295 11.6429 4.55271 10.754C4.32206 11.1059 4.07883 11.487 3.82443 11.8857C3.12951 12.9746 2.35123 14.1942 1.51835 15.3047C0.719808 16.3695 0.696345 17.2951 0.925604 18.0278C1.16788 18.802 1.717 19.4242 2.14369 19.7476ZM5.3038 9.65898C5.26033 9.90679 5.26366 10.1668 5.30642 10.434C5.44 11.2686 5.96535 12.1761 6.70969 12.9279L8.87963 14.4951C9.74681 12.4836 10.9168 10.8968 12.2803 9.97859C9.34867 8.20988 7.43258 8.21919 6.83616 8.37626C6.75468 8.39772 6.67536 8.41447 6.6163 8.42694L6.61626 8.42695L6.61085 8.42809C6.54493 8.44202 6.50139 8.45136 6.46129 8.46186C6.38708 8.4813 6.16619 8.60811 5.78695 9.04581C5.63414 9.22217 5.47334 9.42756 5.3038 9.65898ZM13.2573 10.3339C11.8298 11.0534 10.5154 12.6487 9.54476 14.9754L20.2499 22.7069C20.8473 23.1384 21.008 23.959 20.6174 24.5839L17.671 29.2982C17.2574 29.9599 16.3826 30.1558 15.7263 29.7335L8.81535 25.287C9.52625 27.4179 10.5874 29.3422 11.8214 30.753C13.1688 32.2934 14.6306 33.1245 15.999 33.1245C17.5248 33.1245 18.2627 32.926 18.9812 32.7327C19.2267 32.6666 19.4698 32.6012 19.7413 32.5445C20.8808 32.3066 22.1385 32.3455 24.9728 33.1553C26.7479 33.6624 33.5168 31.9462 34.2987 21.1628C34.2953 18.1758 33.7503 15.4343 32.6679 13.4683C31.5986 11.526 30.0445 10.3885 27.9363 10.3885C25.5165 10.3885 24.0783 11.2032 23.1289 11.7785C22.6409 12.0742 22.0065 12.1352 21.5095 11.7215C21.4296 11.6551 21.3604 11.582 21.3009 11.5039C21.1697 11.5971 20.9951 11.666 20.7891 11.6604C20.5585 11.6541 20.3891 11.557 20.2939 11.4856C18.9149 10.4514 17.7393 10.0906 16.7083 10.0083C15.7437 9.93134 14.8763 10.0911 13.9676 10.2585L13.9673 10.2586C13.8748 10.2756 13.7818 10.2927 13.6883 10.3097C13.5434 10.3359 13.3989 10.3434 13.2573 10.3339ZM20.6941 6.66257C20.3961 5.70317 19.9551 4.87159 19.4804 4.1822C18.9804 3.45611 18.4491 2.89738 18.0246 2.52663C17.9535 2.46458 17.8864 2.40865 17.8239 2.35871C17.8017 2.41412 17.7794 2.47183 17.7575 2.5308C17.752 2.5455 17.7484 2.56739 17.7587 2.6026C17.7699 2.64094 17.797 2.68893 17.8439 2.73165C19.1849 3.95223 20.0959 5.36563 20.6941 6.66257ZM17.3946 2.06438L17.3969 2.06545C17.38 2.05937 17.378 2.05687 17.3946 2.06438Z" fill="black"/>
</svg>
