3<svg width="23" height="23" viewBox="0 0 23 23" fill="none" xmlns="http://www.w3.org/2000/svg">
<path fill-rule="evenodd" clip-rule="evenodd" d="M21.5822 0.594838C20.5218 0.418105 19.0199 0.433805 17.7597 1.12458C16.4532 1.84073 15.5 3.23117 15.5 5.58803V5.96993L15.8684 6.07042C16.8543 6.3393 18.2738 6.4363 19.5238 5.7662C20.8084 5.07749 21.7884 3.64833 21.9983 1.12956L22.0365 0.670558L21.5822 0.594838ZM19.0513 4.88487C18.2439 5.31769 17.2979 5.34053 16.5104 5.19264C16.6069 3.41027 17.3598 2.48417 18.2403 2.00148C19.0733 1.54487 20.0893 1.44825 20.9503 1.52245C20.688 3.47949 19.8927 4.43373 19.0513 4.88487ZM4.72476 15.3976L5.5439 15.968C5.58855 15.9991 5.63026 16.0337 5.66884 16.0712C5.79438 16.1932 5.88684 16.3468 5.93979 16.5157C6.87848 19.5102 8.89995 22 11 22C12.0302 22 12.5662 21.8555 13.0271 21.7313C13.7787 21.5288 14.3303 21.3801 16.5 22C18.0203 22.4344 22.5 21 23 14C23 10.134 21.6015 6.71017 18.5 6.71017C17.1688 6.71017 16.263 7.07586 15.6314 7.4178C15.4163 7.53427 15.2254 7.55832 15.0725 7.50844C14.8187 7.42567 14.6696 7.1393 14.6879 6.73377C14.7212 5.99876 14.6171 5.32879 14.4327 4.73197C13.8006 2.68628 12.2247 1.5 12 1.5C11.9147 1.5 11.8148 1.66984 11.7268 1.86953C11.6441 2.05722 11.6413 2.25748 11.6962 2.44632L11.6987 2.4548C11.7533 2.6362 11.8609 2.8067 12.0018 2.94491C12.6897 3.6195 13.17 4.38051 13.4947 5.08499C13.6861 5.50047 13.8234 5.89629 13.9172 6.24313C13.9423 6.33586 13.9642 6.42509 13.9833 6.51025C13.9983 6.57734 14.0115 6.64191 14.023 6.70369C14.0817 7.01886 14.096 7.26129 14.0791 7.39459C14.067 7.48973 14.039 7.52928 14 7.5C13.9153 7.43648 13.8315 7.37654 13.7486 7.32002C13.5582 7.19023 13.3724 7.07843 13.1909 6.98252C13.1415 6.95642 13.0925 6.9315 13.0437 6.90771C12.0763 6.4355 11.234 6.41026 10.4764 6.50007C10.1846 6.53465 9.90546 6.58628 9.63652 6.63602L9.59925 6.64291C9.53424 6.65492 9.46874 6.65987 9.40361 6.65826C9.22466 6.65383 9.04846 6.59983 8.89263 6.50649C7.07372 5.4169 5.77172 5.3241 5.1851 5.4461C5.16048 5.45122 5.13573 5.45609 5.11093 5.46097L5.11079 5.46099L5.11079 5.46099C5.00949 5.48092 4.90755 5.50098 4.81196 5.53857C4.67946 5.59067 4.53965 5.69392 4.39251 5.83826C4.26001 5.96822 4.12156 6.13149 3.97713 6.32071C3.65364 6.74451 3.30014 7.29849 2.91625 7.90008L2.91624 7.90009L2.91624 7.90009C2.48302 8.57899 2.01111 9.31852 1.5 10C0.300003 11.6 1.33334 13 2 13.5L4.72476 15.3976ZM2.58814 12.691L6.11539 15.1474C6.17847 15.1914 6.2383 15.2384 6.29484 15.2883L10.9229 18.4923C11.1575 18.6548 11.4802 18.5882 11.6315 18.3462L13.0803 16.0281C13.2198 15.8049 13.1624 15.5118 12.9491 15.3578L12.0783 14.7289L10.9 16.3L10.1 15.7L11.2675 14.1433L10.2945 13.4406L8.9 15.3L8.1 14.7L9.48374 12.855L8.59184 12.2109L7.4 13.8L6.6 13.2L7.78103 11.6253L6.86775 10.9657L5.39043 12.8123L4.60957 12.1877L6.05609 10.3795L5.10536 9.69286L3.9 11.3L3.1 10.7L4.35273 9.02969C4.15494 8.78777 3.99051 8.52948 3.87297 8.26019L3.77777 8.40934C3.3397 9.0959 2.83591 9.88545 2.3 10.6C1.89555 11.1393 1.90746 11.5542 2.00437 11.8639C2.11783 12.2264 2.38423 12.534 2.58814 12.691ZM4.80054 6.89034C4.6996 7.06303 4.66655 7.2357 4.67443 7.40122C4.691 7.74908 4.89416 8.17771 5.32625 8.61886L6.43007 9.41606C6.89817 8.4623 7.50397 7.74062 8.18967 7.2538C6.61919 6.35828 5.64307 6.37225 5.38871 6.42515C5.35814 6.43151 5.32628 6.43777 5.3011 6.44272L5.2845 6.44599C5.25434 6.45195 5.23283 6.45634 5.21411 6.46051L5.21252 6.46087C5.16543 6.49469 5.12202 6.52876 5.08207 6.56301C5.03871 6.60631 4.98219 6.66704 4.91226 6.751C4.87603 6.7945 4.83881 6.84096 4.80054 6.89034ZM9.58081 7.6526C8.70667 7.94849 7.85928 8.69015 7.25417 10.0112L13.5346 14.5471C14.1746 15.0093 14.3468 15.8886 13.9283 16.5581L12.4795 18.8762C12.0258 19.6022 11.0575 19.8018 10.3537 19.3145L7.23364 17.1545C7.64838 18.1591 8.18655 19.0462 8.78209 19.7168C9.57227 20.6065 10.3527 21 11 21C11.8894 21 12.2846 20.8937 12.7217 20.7761C12.883 20.7327 13.05 20.6878 13.2496 20.6461C14.0814 20.4724 14.9636 20.521 16.7747 21.0385C17.4898 21.2428 21.5177 20.5155 22 13.9644C21.9956 12.1441 21.6607 10.5204 21.037 9.38764C20.43 8.28502 19.6006 7.71017 18.5 7.71017C17.3726 7.71017 16.6299 8.01437 16.1075 8.29718C15.667 8.53568 15.0763 8.6484 14.5428 8.36836C14.3869 8.45969 14.1926 8.51913 13.9729 8.50821C13.7034 8.49481 13.5079 8.38095 13.4 8.3C12.6339 7.72541 12.004 7.52897 11.4714 7.47563C10.9093 7.41934 10.397 7.51243 9.78096 7.62626C9.71397 7.63864 9.64719 7.64735 9.58081 7.6526Z" fill="black"/>
</svg>
