<svg width="30" height="31" viewBox="0 0 30 31" fill="none" xmlns="http://www.w3.org/2000/svg">
<path fill-rule="evenodd" clip-rule="evenodd" d="M17.7106 8.01292L25.4003 0.489536L24.8999 0L17.2103 7.52338C16.6773 8.04479 16.6773 8.89017 17.2103 9.41159L20.3649 12.498C20.8979 13.0194 21.7619 13.0194 22.2949 12.498L29.9845 4.97465L29.4842 4.48511L21.7945 12.0085C21.5379 12.2595 21.1219 12.2595 20.8653 12.0085L20.2307 11.3877L28.3811 3.41353L28.0314 3.05613L19.8733 11.0379L18.7027 9.89264L26.853 1.9185L26.5034 1.5611L18.3452 9.54288L17.7106 8.92205C17.454 8.671 17.454 8.26397 17.7106 8.01292ZM0.475083 25.967L9.42991 17.5867L10.1087 18.3211L1.15838 26.6971C0.929773 26.9111 0.951797 27.2801 1.20423 27.4653L2.57238 28.4692C2.77668 28.6192 3.06083 28.5925 3.23372 28.4073L11.3713 19.6874L12.0519 20.4238L3.96482 29.0895C3.44614 29.6453 2.59369 29.7252 1.98078 29.2755L0.612628 28.2715C-0.14466 27.7159 -0.210734 26.6088 0.475083 25.967ZM18.3391 12.221L16.707 13.9699L17.3876 14.7063L19.4034 12.5462L19.7366 12.1892L19.3875 11.8477L17.8594 10.3527L17.5175 10.0181L17.1681 10.345L15.1244 12.2576L15.8032 12.992L17.5021 11.402L18.3391 12.221ZM24.6047 26.4965C24.5737 26.9082 24.2074 27.2174 23.7866 27.1871C23.3658 27.1568 23.0497 26.7985 23.0807 26.3868C23.1117 25.975 23.4779 25.6658 23.8988 25.6961C24.3196 25.7264 24.6356 26.0848 24.6047 26.4965ZM3.85936 1.40857L3.07422 0.51835L2.98504 1.70389C2.90801 2.72793 3.30564 4.08033 3.92613 5.53435C4.5559 7.0101 5.45073 8.66919 6.44909 10.337C8.44656 13.6737 10.8841 17.0877 12.5209 19.2146L12.8394 19.6284L13.2397 19.2905L13.6833 18.916L23.3023 29.8224C23.8411 30.4333 24.7708 30.5002 25.3952 29.9731L27.9185 27.8429L28.3364 27.49L27.9493 27.1061L16.5546 15.8028L3.85936 1.40857ZM24.0536 29.16L14.4488 18.2697L16.1616 16.8237L26.8565 27.4328L24.7512 29.2102C24.5431 29.3859 24.2331 29.3636 24.0536 29.16ZM4.18577 3.29289L15.4769 16.0951L13.4137 17.8369L12.9974 18.1884C11.3904 16.0703 9.15549 12.9081 7.30784 9.82163C6.32117 8.1734 5.45135 6.55734 4.84636 5.13965C4.55505 4.45701 4.33281 3.83737 4.18577 3.29289Z" fill="black"/>
</svg>
