<svg width="36" height="35" viewBox="0 0 36 35" fill="none" xmlns="http://www.w3.org/2000/svg">
<path fill-rule="evenodd" clip-rule="evenodd" d="M32.7935 0.146855C31.1414 -0.128486 28.826 -0.0979948 26.9002 0.957633C24.9281 2.03863 23.4572 4.14397 23.4572 7.80246V8.18436L23.8257 8.28484C25.3539 8.70164 27.5278 8.84301 29.426 7.82532C31.359 6.78901 32.8813 4.6203 33.2096 0.681574L33.2478 0.222575L32.7935 0.146855ZM28.9535 6.94399C27.5021 7.7221 25.8052 7.70887 24.4634 7.41242C24.5618 4.32109 25.8355 2.68162 27.3809 1.83453C28.8749 1.01559 30.6997 0.895768 32.167 1.0678C31.7837 4.45434 30.4417 6.14614 28.9535 6.94399ZM5.81868 23.2818L7.48859 24.4448C7.59746 24.5206 7.68903 24.6168 7.75996 24.7269C7.81276 24.8089 7.85413 24.8985 7.88266 24.993C9.34813 29.8489 12.6093 33.9245 15.999 33.9245C17.6388 33.9245 18.4919 33.6946 19.2254 33.4969C20.4217 33.1744 21.2997 32.9378 24.7531 33.9245C27.1728 34.6159 34.3029 32.3329 35.0987 21.1913C35.0987 15.038 32.8728 9.5885 27.9363 9.58849C25.3051 9.58849 23.7178 10.4862 22.7143 11.0944C22.337 11.323 22.0168 11.2108 21.8745 10.9135C21.807 10.7725 21.7795 10.5897 21.8051 10.3818C21.8292 10.1861 21.8472 9.99293 21.8593 9.80247C22.1952 4.51792 18.0578 1.29574 17.5906 1.29574C17.4036 1.29574 17.1725 1.80852 17.0076 2.25197C16.8663 2.63209 17.0055 3.05028 17.3054 3.32327C19.5989 5.41088 20.555 8.12079 20.8249 9.65744C20.8358 9.71973 20.8456 9.78009 20.8544 9.8384L20.8578 9.8618C20.8799 10.0129 20.8946 10.1499 20.9027 10.2707C20.9141 10.4406 20.9124 10.5783 20.8998 10.6778C20.886 10.7862 20.8593 10.8492 20.8225 10.8593C20.8079 10.8633 20.7916 10.8589 20.7739 10.8456C20.5104 10.6479 20.2523 10.4721 19.9994 10.316C19.9656 10.2951 19.9319 10.2747 19.8983 10.2545C18.0098 9.12179 16.4126 9.08715 15 9.27492C14.5953 9.32871 14.2058 9.40075 13.8288 9.47046V9.47047L13.8286 9.47051C13.7335 9.4881 13.6391 9.50555 13.5456 9.52251C13.357 9.55671 13.1646 9.53244 12.9895 9.45955C12.9382 9.43822 12.8884 9.41272 12.8407 9.3833C9.7204 7.46121 7.52404 7.36783 6.63242 7.60264C6.57018 7.61903 6.50722 7.63233 6.44427 7.64563H6.44426H6.44425H6.44424C6.38212 7.65876 6.32 7.67188 6.25856 7.68798C6.14348 7.71812 6.02482 7.77432 5.90255 7.85382C5.45477 8.14494 4.95865 8.74848 4.41362 9.52893C4.01308 10.1025 3.58612 10.7716 3.13251 11.4824H3.1325L3.13248 11.4825C2.44296 12.563 1.69185 13.7401 0.878353 14.8247C-1.03162 17.3714 0.61308 19.5997 1.67418 20.3955L5.81868 23.2818ZM2.26135 19.5858L8.06008 23.6242C8.20822 23.7273 8.33923 23.8484 8.45166 23.9828L16.2133 28.9767C16.4477 29.1275 16.7601 29.0575 16.9078 28.8212L19.8542 24.1069C19.9937 23.8837 19.9363 23.5906 19.723 23.4366L17.653 21.9415L15.6032 24.6746L14.8032 24.0746L16.8422 21.356L14.8251 19.8992L12.4188 23.0844L11.6209 22.4816L14.0142 19.3135L12.1037 17.9337L10.0324 20.6955L9.2324 20.0955L11.2929 17.3482L9.37093 15.9601L6.83915 19.1167L6.05907 18.491L8.55922 15.3738L6.55447 13.9259L4.46164 16.7164L3.66164 16.1164L5.79694 13.2693C5.23314 12.6324 4.78116 11.8914 4.54722 11.1289C4.37108 11.4009 4.18756 11.6885 3.9974 11.9865H3.99739H3.99738C3.30121 13.0774 2.51608 14.3078 1.67835 15.4247C0.918917 16.4373 0.90617 17.296 1.11648 17.968C1.34312 18.6923 1.86054 19.281 2.26135 19.5858ZM5.37634 9.89966C5.36642 10.0678 5.37682 10.2411 5.40516 10.4182C5.53416 11.2242 6.0436 12.111 6.77497 12.8517L8.83756 14.3413C9.65664 12.4815 10.7411 10.9804 12.0069 10.0486C9.2004 8.39912 7.40288 8.43383 6.8871 8.56967C6.80071 8.59242 6.71716 8.61006 6.65855 8.62243L6.65851 8.62244L6.65219 8.62378C6.58736 8.63747 6.54891 8.64576 6.51502 8.65454L6.51386 8.65507C6.50587 8.65851 6.45629 8.67982 6.36248 8.75393C6.24928 8.84336 6.10815 8.98052 5.9381 9.17678C5.76321 9.37862 5.57646 9.62088 5.37634 9.89966ZM13.1192 10.5211C11.8062 11.2585 10.5888 12.7635 9.66773 14.9409L20.3085 22.6259C20.9485 23.0881 21.1207 23.9674 20.7022 24.6369L17.7558 29.3512C17.3127 30.0602 16.3754 30.27 15.6722 29.8176L9.14045 25.6151C9.84017 27.568 10.8336 29.32 11.9719 30.6213C13.3006 32.1403 14.7123 32.9245 15.999 32.9245C17.4967 32.9245 18.2067 32.7335 18.9202 32.5416H18.9203L18.9204 32.5415C19.1689 32.4747 19.4177 32.4078 19.7004 32.3487C20.8865 32.1011 22.1812 32.1497 25.0278 32.963C26.6418 33.4241 33.3204 31.8493 34.0987 21.1557C34.0944 18.1913 33.5524 15.4895 32.4927 13.5647C31.4494 11.6698 29.9544 10.5885 27.9363 10.5885C25.5693 10.5885 24.1684 11.3824 23.2326 11.9496C22.6922 12.2771 21.9609 12.3575 21.3815 11.8753C21.3374 11.8385 21.2961 11.8001 21.2577 11.7603C21.1224 11.8246 20.9626 11.8652 20.7837 11.8603C20.4983 11.8526 20.2896 11.7324 20.1739 11.6456C18.8237 10.6329 17.6838 10.2869 16.6924 10.2077C15.7553 10.1329 14.9134 10.2878 14.0015 10.4557C13.9098 10.4725 13.8173 10.4895 13.724 10.5065C13.5196 10.5435 13.316 10.5469 13.1192 10.5211Z" fill="black"/>
</svg>
